<?xml version="1.0" encoding="utf-8"?>
<!DOCTYPE svg PUBLIC "-//W3C//DTD SVG 1.0//EN" "http://www.w3.org/TR/2001/REC-SVG-20010904/DTD/svg10.dtd">
<svg version="1.0" id="Layer_1" xmlns="http://www.w3.org/2000/svg" xmlns:xlink="http://www.w3.org/1999/xlink" x="0px" y="0px"
	 width="800px" height="600px" viewBox="0 0 800 600" enable-background="new 0 0 800 600" xml:space="preserve">
<rect x="48" y="56" fill="#F7931E" stroke="#000000" width="512" height="48"/>
<rect x="208" y="104" fill="#FF0000" stroke="#000000" width="96" height="40"/>
<rect x="208" y="144" fill="#0000FF" stroke="#000000" width="96" height="8"/>
<rect x="208" y="152" fill="#39B54A" stroke="#000000" width="96" height="48"/>
<rect x="208" y="200" fill="#8C6239" stroke="#000000" width="96" height="66"/>
<rect x="208" y="266" fill="#F7931E" stroke="#000000" width="352" height="14"/>
<rect x="208" y="370" fill="#F7931E" width="96" height="54"/>
<rect x="320" y="370" fill="#999999" width="128" height="46"/>
<path fill="#662D91" d="M641,424c0,0,0,91.38,0,129s-66,43-66,43s-330,0-396,0s-66-43-66-43V424h79v48c0,0,0,16,16,16s96,0,96,0
	s16-2,16-16s0-48,0-48h128v48c0,0,0,16,16,16s96,0,96,0s16-2,16-16s0-48,0-48H641z"/>
<path fill="#00FFFF" d="M576,424c0,0,0,34,0,48s-16,16-16,16s-80,0-96,0s-16-16-16-16v-48h16h96H576z"/>
<path fill="#00FFFF" d="M320,424c0,0,0,34,0,48s-16,16-16,16s-80,0-96,0s-16-16-16-16v-48h16h96H320z"/>
<rect x="464" y="280" fill="#F7931E" width="96" height="144"/>
<polyline fill="none" stroke="#000000" points="464,424 464,280 560,280 560,424 		"/>
<polyline fill="none" stroke="#000000" points="208,424 192,424 113,424 58,424 		"/>
<polyline fill="none" stroke="#000000" points="656,424 641,424 576,424 560,424 464,424 448,424 320,424 304,424 		"/>
<rect x="320" y="370" fill="none" stroke="#000000" width="128" height="46"/>
<rect x="208" y="370" fill="none" stroke="#000000" width="96" height="54"/>
<path fill="none" stroke="#000000" d="M192,424v48c0,0,0,16,16,16s96,0,96,0s16-2,16-16s0-48,0-48"/>
<path fill="none" stroke="#000000" d="M448,424v48c0,0,0,16,16,16s96,0,96,0s16-2,16-16s0-48,0-48"/>
<path fill="none" stroke="#000000" d="M113,424v129c0,0,0,43,66,43s396,0,396,0s66-5.38,66-43s0-129,0-129"/>
<rect x="202" y="288" fill="#F7931E" stroke="#000000" width="108" height="56"/>
<line fill="none" stroke="#000000" stroke-width="2" x1="228" y1="122" x2="274" y2="122"/>
<polygon points="288.121,122 268.222,130.13 272.944,122 268.222,113.872 		"/>
<line fill="none" stroke="#000000" stroke-width="2" x1="242" y1="174" x2="288" y2="174"/>
<polygon points="227.879,174 247.778,165.87 243.056,174 247.778,182.129 		"/>
<text transform="matrix(1 0 0 1 223.9995 82)" font-family="'MyriadPro-Regular'" font-size="10">Bit Line</text>
<text transform="matrix(1 0 0 1 211.7349 320)" font-family="'MyriadPro-Regular'" font-size="10">Write Word Line</text>
<text transform="matrix(1 0 0 1 350.6587 394)" font-family="'MyriadPro-Regular'" font-size="10">Read Word Line</text>
<text transform="matrix(1 0 0 1 236.0518 460)" font-family="'MyriadPro-Regular'" font-size="10">N</text>
<text transform="matrix(1 0 0 1 374.8076 458)" font-family="'MyriadPro-Regular'" font-size="10">P</text>
<text transform="matrix(1 0 0 1 500.0518 458)" font-family="'MyriadPro-Regular'" font-size="10">N</text>
<text transform="matrix(1 0 0 1 243.8838 398)" font-family="'MyriadPro-Regular'" font-size="10">Vdd</text>
<text transform="matrix(1 0 0 1 209.9688 236.0005)" font-family="'MyriadPro-Regular'" font-size="10">Antiferromagnetic</text>
<text transform="matrix(1 0 0 1 314 152)" font-family="'MyriadPro-Regular'" font-size="10">Tunnel barrier</text>
<text transform="matrix(1 0 0 1 312 126)" font-family="'MyriadPro-Regular'" font-size="10">Magnetic Free Layer</text>
<text transform="matrix(1 0 0 1 314 180)" font-family="'MyriadPro-Regular'" font-size="10">Magnetic Pinned Layer</text>
</svg>
